<svg width="20" height="18" viewBox="0 0 20 18" fill="none" xmlns="http://www.w3.org/2000/svg">
<path d="M13.9502 0.75V0V0.75ZM17.1123 1.07715L17.4529 0.408936L17.4528 0.408894L17.1123 1.07715ZM18.4229 2.3877L19.0911 2.0472L19.0911 2.04712L18.4229 2.3877ZM18.75 5.5498H19.5H18.75ZM18.75 9.15039H19.5H18.75ZM18.4229 12.3115L19.0911 12.652L19.0912 12.6519L18.4229 12.3115ZM17.1123 13.623L17.4528 14.2913L17.4529 14.2913L17.1123 13.623ZM15.3496 16.4629L16.0996 16.463V16.4629H15.3496ZM14.5811 16.7812L14.0506 17.3115L14.0507 17.3116L14.5811 16.7812ZM5.5498 13.9502V14.7002V13.9502ZM2.3877 13.623L2.04714 14.2913L2.0472 14.2913L2.3877 13.623ZM1.07715 12.3115L0.40884 12.6519L0.408893 12.652L1.07715 12.3115ZM0.75 9.15039H0H0.75ZM0.75 5.5498H0H0.75ZM1.07715 2.3877L0.408936 2.04712L0.408894 2.0472L1.07715 2.3877ZM2.3877 1.07715L2.0472 0.408894L2.04712 0.408936L2.3877 1.07715ZM5.5498 0.75V0V0.75ZM16.3175 13.8623L16.2035 13.121L16.3175 13.8623ZM13.9502 0.75V1.5C14.8025 1.5 15.3968 1.50063 15.8595 1.53847C16.3134 1.57559 16.5743 1.64476 16.7718 1.7454L17.1123 1.07715L17.4528 0.408894C17.0086 0.182572 16.5284 0.0881653 15.9818 0.0434569C15.4438 -0.000538111 14.7779 0 13.9502 0V0.75ZM17.1123 1.07715L16.7717 1.74536C17.1949 1.96104 17.539 2.3051 17.7546 2.72827L18.4229 2.3877L19.0911 2.04712C18.7316 1.34184 18.1582 0.768404 17.4529 0.408936L17.1123 1.07715ZM18.4229 2.3877L17.7546 2.72819C17.8552 2.92572 17.9244 3.18658 17.9615 3.64051C17.9994 4.10318 18 4.69746 18 5.5498H18.75H19.5C19.5 4.72212 19.5005 4.05621 19.4565 3.51825C19.4118 2.97157 19.3174 2.49138 19.0911 2.0472L18.4229 2.3877ZM18.75 5.5498H18V9.15039H18.75H19.5V5.5498H18.75ZM18.75 9.15039H18C18 10.0025 17.9993 10.5966 17.9615 11.059C17.9243 11.5127 17.8552 11.7735 17.7545 11.9711L18.4229 12.3115L19.0912 12.6519C19.3173 12.2079 19.4117 11.7279 19.4565 11.1814C19.5005 10.6436 19.5 9.97792 19.5 9.15039H18.75ZM18.4229 12.3115L17.7546 11.971C17.5387 12.3948 17.1946 12.7393 16.7717 12.9548L17.1123 13.623L17.4529 14.2913C18.1588 13.9315 18.7319 13.3571 19.0911 12.652L18.4229 12.3115ZM17.1123 13.623L16.7718 12.9548C16.6314 13.0263 16.4576 13.0819 16.2035 13.121L16.3175 13.8623L16.4316 14.6036C16.7974 14.5473 17.1339 14.4538 17.4528 14.2913L17.1123 13.623ZM15.3496 14.9079H14.5996V16.4629H15.3496H16.0996V14.9079H15.3496ZM15.3496 16.4629L14.5996 16.4628C14.5996 16.1958 14.9222 16.0617 15.1114 16.2509L14.5811 16.7812L14.0507 17.3116C14.8069 18.0677 16.0995 17.5317 16.0996 16.463L15.3496 16.4629ZM14.5811 16.7812L15.1115 16.251L12.5743 13.713L12.0439 14.2432L11.5135 14.7734L14.0506 17.3115L14.5811 16.7812ZM11.3367 13.9502V13.2002H5.5498V13.9502V14.7002H11.3367V13.9502ZM5.5498 13.9502V13.2002C4.69746 13.2002 4.10318 13.1996 3.64051 13.1617C3.18658 13.1246 2.92572 13.0554 2.72819 12.9548L2.3877 13.623L2.0472 14.2913C2.49138 14.5176 2.97157 14.612 3.51825 14.6567C4.05621 14.7007 4.72212 14.7002 5.5498 14.7002V13.9502ZM2.3877 13.623L2.72825 12.9548C2.30542 12.7393 1.96132 12.3948 1.7454 11.971L1.07715 12.3115L0.408893 12.652C0.768135 13.3571 1.34123 13.9315 2.04714 14.2913L2.3877 13.623ZM1.07715 12.3115L1.74546 11.9711C1.64481 11.7735 1.57566 11.5127 1.53852 11.059C1.50067 10.5966 1.5 10.0025 1.5 9.15039H0.75H0C0 9.97792 -0.000498295 10.6436 0.0435209 11.1814C0.0882561 11.7279 0.182675 12.2079 0.40884 12.6519L1.07715 12.3115ZM0.75 9.15039H1.5V5.5498H0.75H0V9.15039H0.75ZM0.75 5.5498H1.5C1.5 4.69746 1.50063 4.10318 1.53847 3.64051C1.57559 3.18658 1.64476 2.92572 1.7454 2.72819L1.07715 2.3877L0.408894 2.0472C0.182572 2.49138 0.0881652 2.97157 0.0434567 3.51825C-0.00053817 4.05621 0 4.72212 0 5.5498H0.75ZM1.07715 2.3877L1.74536 2.72827C1.96104 2.3051 2.3051 1.96104 2.72827 1.74536L2.3877 1.07715L2.04712 0.408936C1.34184 0.768404 0.768404 1.34184 0.408936 2.04712L1.07715 2.3877ZM2.3877 1.07715L2.72819 1.7454C2.92572 1.64476 3.18658 1.57559 3.64051 1.53847C4.10318 1.50063 4.69746 1.5 5.5498 1.5V0.75V0C4.72212 0 4.05621 -0.000538111 3.51825 0.0434569C2.97157 0.0881654 2.49138 0.182572 2.0472 0.408894L2.3877 1.07715ZM5.5498 0.75V1.5H13.9502V0.75V0H5.5498V0.75ZM12.0439 14.2432L12.5743 13.713C12.2461 13.3847 11.8009 13.2002 11.3367 13.2002V13.9502V14.7002C11.403 14.7002 11.4666 14.7265 11.5135 14.7734L12.0439 14.2432ZM16.3175 13.8623L16.2035 13.121C15.3741 13.2486 14.5996 13.929 14.5996 14.9079H15.3496H16.0996C16.0996 14.8466 16.1219 14.7872 16.1756 14.7309C16.2327 14.6711 16.3223 14.6204 16.4316 14.6036L16.3175 13.8623Z" fill="currentColor"/>
<path d="M5.54974 5.54975L13.9497 5.54975" stroke="currentColor" stroke-width="1.5" stroke-linecap="round" stroke-linejoin="round"/>
<path d="M5.54974 9.14855L11.5497 9.14855" stroke="currentColor" stroke-width="1.5" stroke-linecap="round" stroke-linejoin="round"/>
</svg>
