<svg width="24" height="24" viewBox="0 0 24 24" fill="none" xmlns="http://www.w3.org/2000/svg">
<path d="M2.59961 6.7856V8.96727C3.64536 9.57393 4.36211 10.6939 4.36211 11.9773C4.36211 13.2606 3.64536 14.3806 2.59961 14.9873V17.1689C2.59961 17.8456 3.15186 18.3823 3.82161 18.3823H20.1659C20.8474 18.3823 21.3879 17.8339 21.3879 17.1689V6.7856C21.3879 6.10893 20.8356 5.57227 20.1659 5.57227H3.82161C3.15186 5.57227 2.59961 6.1206 2.59961 6.7856Z" stroke="currentColor" stroke-width="1.5"/>
<path d="M11.6354 9.97179C11.6354 10.2583 11.5851 10.5198 11.4844 10.7562C11.3837 10.9926 11.25 11.1968 11.0833 11.3687C10.9167 11.537 10.7222 11.6678 10.5 11.7609C10.2812 11.854 10.0521 11.9006 9.8125 11.9006C9.54861 11.9006 9.30556 11.854 9.08333 11.7609C8.86458 11.6678 8.67361 11.537 8.51042 11.3687C8.35069 11.1968 8.22569 10.9926 8.13542 10.7562C8.04514 10.5198 8 10.2583 8 9.97179C8 9.6745 8.04514 9.40587 8.13542 9.16588C8.22569 8.92232 8.35069 8.71457 8.51042 8.54265C8.67361 8.37072 8.86458 8.23819 9.08333 8.14506C9.30556 8.04835 9.54861 8 9.8125 8C10.0764 8 10.3194 8.04835 10.5417 8.14506C10.7674 8.23819 10.9601 8.37072 11.1198 8.54265C11.283 8.71457 11.4097 8.92232 11.5 9.16588C11.5903 9.40587 11.6354 9.6745 11.6354 9.97179ZM10.3958 9.97179C10.3958 9.78912 10.3802 9.63868 10.349 9.52048C10.3212 9.3987 10.2812 9.30199 10.2292 9.23036C10.1771 9.15872 10.1146 9.10857 10.0417 9.07992C9.97222 9.05126 9.89583 9.03694 9.8125 9.03694C9.72917 9.03694 9.65278 9.05126 9.58333 9.07992C9.51389 9.10857 9.45486 9.15872 9.40625 9.23036C9.35764 9.30199 9.31944 9.3987 9.29167 9.52048C9.26389 9.63868 9.25 9.78912 9.25 9.97179C9.25 10.1437 9.26389 10.287 9.29167 10.4016C9.31944 10.5162 9.35764 10.6076 9.40625 10.6756C9.45486 10.7437 9.51389 10.792 9.58333 10.8207C9.65278 10.8493 9.72917 10.8637 9.8125 10.8637C9.89583 10.8637 9.97222 10.8493 10.0417 10.8207C10.1146 10.792 10.1771 10.7437 10.2292 10.6756C10.2812 10.6076 10.3212 10.5162 10.349 10.4016C10.3802 10.287 10.3958 10.1437 10.3958 9.97179ZM14.0208 8.32236C14.0729 8.26147 14.1372 8.20595 14.2135 8.15581C14.2899 8.10208 14.3958 8.07522 14.5312 8.07522H15.7083L9.98958 15.6669C9.9375 15.7349 9.87153 15.7923 9.79167 15.8388C9.71528 15.8818 9.62153 15.9033 9.51042 15.9033H8.30208L14.0208 8.32236ZM16 14.0658C16 14.3524 15.9497 14.6156 15.849 14.8556C15.7483 15.092 15.6146 15.2962 15.4479 15.4681C15.2812 15.6364 15.0868 15.7672 14.8646 15.8603C14.6458 15.9534 14.4167 16 14.1771 16C13.9132 16 13.6701 15.9534 13.4479 15.8603C13.2292 15.7672 13.0382 15.6364 12.875 15.4681C12.7153 15.2962 12.5903 15.092 12.5 14.8556C12.4097 14.6156 12.3646 14.3524 12.3646 14.0658C12.3646 13.7685 12.4097 13.4999 12.5 13.2599C12.5903 13.0163 12.7153 12.8086 12.875 12.6367C13.0382 12.4647 13.2292 12.3322 13.4479 12.2391C13.6701 12.1424 13.9132 12.094 14.1771 12.094C14.441 12.094 14.684 12.1424 14.9062 12.2391C15.1319 12.3322 15.3247 12.4647 15.4844 12.6367C15.6476 12.8086 15.7743 13.0163 15.8646 13.2599C15.9549 13.4999 16 13.7685 16 14.0658ZM14.7604 14.0658C14.7604 13.8867 14.7448 13.7381 14.7135 13.6199C14.6858 13.4981 14.6458 13.4014 14.5938 13.3298C14.5417 13.2581 14.4792 13.208 14.4063 13.1793C14.3368 13.1507 14.2604 13.1363 14.1771 13.1363C14.0937 13.1363 14.0174 13.1507 13.9479 13.1793C13.8785 13.208 13.8194 13.2581 13.7708 13.3298C13.7222 13.4014 13.684 13.4981 13.6562 13.6199C13.6285 13.7381 13.6146 13.8867 13.6146 14.0658C13.6146 14.2377 13.6285 14.381 13.6562 14.4956C13.684 14.6103 13.7222 14.7016 13.7708 14.7696C13.8194 14.8377 13.8785 14.8861 13.9479 14.9147C14.0174 14.9434 14.0937 14.9577 14.1771 14.9577C14.2604 14.9577 14.3368 14.9434 14.4063 14.9147C14.4792 14.8861 14.5417 14.8377 14.5938 14.7696C14.6458 14.7016 14.6858 14.6103 14.7135 14.4956C14.7448 14.381 14.7604 14.2377 14.7604 14.0658Z" fill="currentColor"/>
</svg>
