<svg width="24" height="24" viewBox="0 0 24 24" fill="none" xmlns="http://www.w3.org/2000/svg">
<path d="M8.5 10.5L15.5 10.5" stroke="currentColor" stroke-width="1.5" stroke-linecap="round"/>
<path d="M8.5 13.5L12.5 13.5" stroke="currentColor" stroke-width="1.5" stroke-linecap="round"/>
<path d="M8.5 16.5L10.5 16.5" stroke="currentColor" stroke-width="1.5" stroke-linecap="round"/>
<path d="M5.5 5.9C5.5 5.05992 5.5 4.63988 5.66349 4.31901C5.8073 4.03677 6.03677 3.8073 6.31901 3.66349C6.63988 3.5 7.05992 3.5 7.9 3.5H13.5059C13.8728 3.5 14.0562 3.5 14.2288 3.54145C14.3819 3.57819 14.5282 3.6388 14.6624 3.72104C14.8138 3.8138 14.9435 3.94352 15.2029 4.20294L17.7971 6.79706C18.0565 7.05648 18.1862 7.1862 18.279 7.33757C18.3612 7.47178 18.4218 7.6181 18.4586 7.77115C18.5 7.94378 18.5 8.12723 18.5 8.49411V18.1C18.5 18.9401 18.5 19.3601 18.3365 19.681C18.1927 19.9632 17.9632 20.1927 17.681 20.3365C17.3601 20.5 16.9401 20.5 16.1 20.5H7.9C7.05992 20.5 6.63988 20.5 6.31901 20.3365C6.03677 20.1927 5.8073 19.9632 5.66349 19.681C5.5 19.3601 5.5 18.9401 5.5 18.1V5.9Z" stroke="currentColor" stroke-width="1.5"/>
<path d="M14.5 3.5V5.1C14.5 5.94008 14.5 6.36012 14.6635 6.68099C14.8073 6.96323 15.0368 7.1927 15.319 7.33651C15.6399 7.5 16.0599 7.5 16.9 7.5H18.5" stroke="currentColor" stroke-width="1.5"/>
</svg>
