<svg width="24" height="24" viewBox="0 0 24 24" fill="none" xmlns="http://www.w3.org/2000/svg">
<path d="M15 4.91406C15.3604 4.91406 15.6531 5.066 15.916 5.2666C16.1673 5.45837 16.4444 5.73733 16.7676 6.06055L16.9395 6.23242C17.2627 6.55564 17.5416 6.83268 17.7334 7.08398C17.934 7.3469 18.0859 7.63961 18.0859 8C18.0859 8.36038 17.934 8.6531 17.7334 8.91602C17.5416 9.16732 17.2627 9.44436 16.9395 9.76758L9.74512 16.9619C9.56928 17.1377 9.4185 17.2942 9.22754 17.4023C9.03664 17.5104 8.82512 17.5589 8.58398 17.6191L5.92969 18.2832C5.7655 18.3242 5.587 18.3702 5.43848 18.3848C5.28375 18.3999 5.02289 18.3959 4.81348 18.1865C4.60407 17.9771 4.6001 17.7163 4.61523 17.5615C4.62976 17.413 4.67575 17.2345 4.7168 17.0703L5.38086 14.416C5.44114 14.1749 5.48962 13.9634 5.59766 13.7725C5.70578 13.5815 5.86225 13.4307 6.03809 13.2549L13.2324 6.06055C13.5556 5.73733 13.8327 5.45837 14.084 5.2666C14.3469 5.066 14.6396 4.91406 15 4.91406Z" stroke="currentColor"/>
<path d="M12.5 6.5L15.5 4.5L18.5 7.5L16.5 10.5L12.5 6.5Z" fill="currentColor"/>
</svg>
