<svg width="24" height="24" viewBox="0 0 24 24" fill="none" xmlns="http://www.w3.org/2000/svg">
<path d="M20 15.3355V8.6762C20 7.84525 19.5613 7.07282 18.8456 6.6515L13.1544 3.31599C12.4387 2.89467 11.5613 2.89467 10.8456 3.31599L5.1544 6.63979C4.43867 7.06112 4 7.83355 4 8.6645V15.3238C4 16.1547 4.43867 16.9272 5.1544 17.3485L10.8456 20.684C11.5613 21.1053 12.4387 21.1053 13.1544 20.684L18.8456 17.3485C19.5613 16.9272 20 16.1547 20 15.3238V15.3355Z" stroke="currentColor" stroke-width="1.5" stroke-miterlimit="10"/>
<path d="M12.897 7V11.004C12.897 11.4287 12.876 11.8463 12.834 12.257C12.792 12.663 12.736 13.0947 12.666 13.552H11.497C11.427 13.0947 11.371 12.663 11.329 12.257C11.287 11.8463 11.266 11.4287 11.266 11.004V7H12.897ZM11 16.17C11 16.0253 11.0257 15.8877 11.077 15.757C11.133 15.6263 11.2077 15.5143 11.301 15.421C11.399 15.3277 11.5133 15.253 11.644 15.197C11.7747 15.141 11.9147 15.113 12.064 15.113C12.2087 15.113 12.3463 15.141 12.477 15.197C12.6077 15.253 12.7197 15.3277 12.813 15.421C12.9063 15.5143 12.981 15.6263 13.037 15.757C13.093 15.8877 13.121 16.0253 13.121 16.17C13.121 16.3193 13.093 16.4593 13.037 16.59C12.981 16.716 12.9063 16.8257 12.813 16.919C12.7197 17.0123 12.6077 17.0847 12.477 17.136C12.3463 17.192 12.2087 17.22 12.064 17.22C11.9147 17.22 11.7747 17.192 11.644 17.136C11.5133 17.0847 11.399 17.0123 11.301 16.919C11.2077 16.8257 11.133 16.716 11.077 16.59C11.0257 16.4593 11 16.3193 11 16.17Z" fill="currentColor"/>
</svg>
