<svg width="13" height="19" viewBox="0 0 13 19" fill="none" xmlns="http://www.w3.org/2000/svg">
<path d="M11.75 16.0307V2.02031C11.75 1.38135 11.0379 1.00024 10.5062 1.35467L9.23673 2.20101C8.94686 2.39426 8.56525 2.3777 8.29321 2.16007L6.74976 0.925302C6.45758 0.691562 6.04242 0.691563 5.75024 0.925303L4.20679 2.16007C3.93475 2.3777 3.55314 2.39426 3.26327 2.20101L1.99376 1.35467C1.46212 1.00024 0.75 1.38135 0.75 2.02031V16.0307C0.75 16.6696 1.46212 17.0508 1.99376 16.6963L3.26327 15.85C3.55314 15.6567 3.93475 15.6733 4.20679 15.8909L5.75024 17.1257C6.04242 17.3594 6.45758 17.3594 6.74976 17.1257L8.29321 15.8909C8.56525 15.6733 8.94686 15.6567 9.23673 15.85L10.5062 16.6963C11.0379 17.0508 11.75 16.6696 11.75 16.0307Z" stroke="currentColor" stroke-width="1.5"/>
<path d="M3.75 6.5255H8.75" stroke="currentColor" stroke-width="1.5" stroke-linecap="round"/>
<path d="M3.75 9.0255H8.75" stroke="currentColor" stroke-width="1.5" stroke-linecap="round"/>
<path d="M3.75 11.5255H8.75" stroke="currentColor" stroke-width="1.5" stroke-linecap="round"/>
</svg>
