<svg width="24" height="24" viewBox="0 0 24 24" fill="none" xmlns="http://www.w3.org/2000/svg">
<path d="M12.2201 20C11.4306 20 10.7057 19.8645 10.0455 19.5936C9.38517 19.3226 8.82536 18.9519 8.36603 18.4813L9.44258 17.5187C9.81579 17.861 10.2177 18.1319 10.6483 18.3316C11.0933 18.5312 11.6172 18.631 12.2201 18.631C12.8086 18.631 13.2608 18.4884 13.5766 18.2032C13.9067 17.9037 14.0718 17.5544 14.0718 17.1551C14.0718 16.7415 13.9211 16.4064 13.6196 16.1497C13.3325 15.8788 12.9593 15.6435 12.5 15.4439C12.0407 15.2299 11.5526 15.016 11.0359 14.8021C10.5191 14.5882 10.0311 14.3387 9.57177 14.0535C9.11244 13.754 8.73206 13.3832 8.43062 12.9412C8.14354 12.4991 8 11.9501 8 11.2941C8 10.6667 8.17943 10.1248 8.53828 9.66845C8.91148 9.19786 9.38517 8.81283 9.95933 8.51337C9.75837 8.2852 9.5933 8.02852 9.46411 7.74332C9.34928 7.45811 9.29187 7.13725 9.29187 6.78075C9.29187 6.03922 9.56459 5.39037 10.11 4.83422C10.6555 4.27807 11.4665 4 12.5431 4C13.2608 4 13.9067 4.12121 14.4809 4.36364C15.0694 4.60606 15.5789 4.89127 16.0096 5.21925L15.1483 6.35294C14.7895 6.06774 14.4019 5.83244 13.9856 5.64706C13.5837 5.46168 13.1316 5.36898 12.6292 5.36898C12.0263 5.36898 11.5885 5.50446 11.3158 5.7754C11.0431 6.03209 10.9067 6.34581 10.9067 6.71658C10.9067 7.1016 11.0502 7.42959 11.3373 7.70053C11.6388 7.95722 12.0191 8.19251 12.4785 8.40642C12.9378 8.60606 13.4258 8.81283 13.9426 9.02674C14.4737 9.24064 14.9689 9.49733 15.4282 9.79679C15.8876 10.0963 16.2608 10.467 16.5478 10.9091C16.8493 11.3512 17 11.9002 17 12.5561C17 13.2406 16.8206 13.7968 16.4617 14.2246C16.1029 14.6524 15.6292 15.0232 15.0407 15.3369C15.2416 15.5651 15.3995 15.8217 15.5144 16.107C15.6292 16.3779 15.6866 16.6988 15.6866 17.0695C15.6866 17.9109 15.3636 18.6096 14.7177 19.1658C14.0718 19.7219 13.2392 20 12.2201 20ZM9.52871 11.1872C9.52871 11.6578 9.67225 12.0499 9.95933 12.3636C10.2608 12.6631 10.6411 12.9269 11.1005 13.1551C11.5598 13.3832 12.0478 13.6043 12.5646 13.8182C13.0813 14.0178 13.5694 14.2531 14.0287 14.5241C14.488 14.3244 14.8397 14.0891 15.0837 13.8182C15.3421 13.5472 15.4713 13.1693 15.4713 12.6845C15.4713 12.1996 15.3278 11.8004 15.0407 11.4866C14.7536 11.1729 14.3804 10.902 13.9211 10.6738C13.4617 10.4456 12.9737 10.2246 12.4569 10.0107C11.9402 9.79679 11.4522 9.5615 10.9928 9.30481C10.5478 9.53298 10.189 9.79679 9.91627 10.0963C9.65789 10.3815 9.52871 10.7451 9.52871 11.1872Z" fill="currentColor"/>
</svg>
