<svg width="28" height="28" viewBox="0 0 28 28" fill="none" xmlns="http://www.w3.org/2000/svg">
<path fill-rule="evenodd" clip-rule="evenodd" d="M5.83333 10.4083C5.83333 5.9721 9.33603 2.33334 13.7083 2.33334C18.0806 2.33334 21.5833 5.97198 21.5833 10.4083C21.5833 11.6004 21.0756 13.1056 20.4145 14.5968C19.7387 16.121 18.8447 17.7546 17.9611 19.2456C17.0758 20.7395 16.1918 22.1054 15.5298 23.0971C15.1986 23.5933 14.9223 23.9967 14.7284 24.2766C14.6315 24.4166 14.5551 24.5258 14.5027 24.6003L14.4426 24.6856L14.4268 24.7079L14.4214 24.7154C14.4213 24.7155 14.4209 24.7161 13.7083 24.2083C12.9957 24.7161 12.9957 24.716 12.9956 24.7159L12.9899 24.7079L12.9741 24.6856L12.9139 24.6003C12.8615 24.5258 12.7852 24.4166 12.6882 24.2766C12.4943 23.9967 12.2181 23.5933 11.8868 23.0971C11.2249 22.1054 10.3409 20.7394 9.45559 19.2455C8.57199 17.7546 7.67797 16.121 7.00218 14.5967C6.34106 13.1056 5.83333 11.6004 5.83333 10.4083ZM13.7083 24.2083L12.9956 24.7159L13.7083 25.7161L14.4214 24.7154L13.7083 24.2083ZM13.7083 22.6694C13.8202 22.5045 13.9428 22.3225 14.0743 22.1255C14.7249 21.1509 15.5909 19.8125 16.4556 18.3534C17.322 16.8914 18.178 15.3235 18.8147 13.8875C19.4661 12.4183 19.8333 11.2044 19.8333 10.4083C19.8333 6.89169 17.068 4.08334 13.7083 4.08334C10.3487 4.08334 7.58333 6.8918 7.58333 10.4083C7.58333 11.2044 7.95061 12.4183 8.60199 13.8874C9.23869 15.3235 10.0947 16.8914 10.9611 18.3534C11.8258 19.8124 12.6918 21.1509 13.3423 22.1255C13.4738 22.3225 13.5964 22.5045 13.7083 22.6694ZM13.7083 8.36664C12.5808 8.36664 11.6667 9.28074 11.6667 10.4083C11.6667 11.5359 12.5808 12.45 13.7083 12.45C14.8359 12.45 15.75 11.5359 15.75 10.4083C15.75 9.28074 14.8359 8.36664 13.7083 8.36664ZM9.91667 10.4083C9.91667 8.31424 11.6143 6.61664 13.7083 6.61664C15.8024 6.61664 17.5 8.31424 17.5 10.4083C17.5 12.5024 15.8024 14.2 13.7083 14.2C11.6143 14.2 9.91667 12.5024 9.91667 10.4083Z" fill="currentColor"/>
</svg>
