<svg width="24" height="24" viewBox="0 0 24 24" fill="none" xmlns="http://www.w3.org/2000/svg">
<path d="M12.4903 5H3.00004L8.62715 10.0611C9.46727 10.8167 10.5652 11.2359 11.7046 11.2359H12.8138L9.12166 7.80195L10.7459 7.81451C11.19 7.81794 11.6175 7.98088 11.9477 8.27255L14.7296 10.7299C15.0983 11.0556 15.5768 11.2359 16.0727 11.2359H16.9039C17.7418 11.2359 18.6156 11.4449 18.6156 12C18.6156 12.5551 17.7418 12.7641 16.9039 12.7641H16.0727C15.5767 12.7641 15.0983 12.9444 14.7296 13.2701L11.9476 15.7275C11.6174 16.0191 11.19 16.182 10.7458 16.1855L9.12162 16.198L12.8138 12.7642H11.7045C10.5652 12.7642 9.46724 13.1833 8.62712 13.9389L3 19H12.4902C13.1054 19 13.6982 18.7737 14.1518 18.3658L20.8451 12.3456C21.0516 12.1598 21.0516 11.8402 20.8451 11.6544L14.1518 5.63428C13.6982 5.22631 13.1054 5 12.4903 5Z" fill="currentColor"/>
</svg>
