<svg width="24" height="24" viewBox="0 0 24 24" fill="none" xmlns="http://www.w3.org/2000/svg">
<path d="M11.7294 2.75C12.6503 2.75004 13.529 2.94788 14.3232 3.30469C13.8956 3.62713 13.5352 4.03338 13.2656 4.49902C12.7818 4.33696 12.2648 4.25003 11.7294 4.25C9.26527 4.25 7.19518 6.10274 6.92281 8.55176L6.67085 10.8184C6.6677 10.8467 6.66584 10.863 6.66402 10.8789C6.52297 12.1078 6.12278 13.2934 5.49019 14.3564C5.48207 14.3701 5.47345 14.384 5.45894 14.4082L4.88081 15.3711C4.61016 15.8222 4.4381 16.1128 4.33394 16.334C4.27288 16.4637 4.25524 16.5278 4.25093 16.5498C4.26127 16.6005 4.28744 16.6462 4.32515 16.6816C4.34369 16.6886 4.40651 16.7097 4.55464 16.7246C4.79786 16.7491 5.13613 16.75 5.66206 16.75H17.7968C18.3228 16.75 18.6611 16.7491 18.9043 16.7246C19.0506 16.7098 19.1135 16.6888 19.1328 16.6816C19.1706 16.6462 19.1966 16.6006 19.207 16.5498C19.2026 16.5276 19.1859 16.4633 19.125 16.334C19.0208 16.1128 18.8487 15.8222 18.5781 15.3711L18 14.4082C17.9854 14.384 17.9768 14.3701 17.9687 14.3564C17.3361 13.2934 16.9359 12.1079 16.7949 10.8789C16.793 10.863 16.7912 10.8467 16.788 10.8184L16.7519 10.499C17.2745 10.4961 17.7726 10.3921 18.2294 10.207L18.2793 10.6523C18.2825 10.6817 18.2837 10.6954 18.2851 10.708C18.402 11.7262 18.7336 12.7081 19.2578 13.5889C19.2642 13.5997 19.271 13.6115 19.2861 13.6367L19.8642 14.5996C20.118 15.0226 20.3384 15.3887 20.4824 15.6943C20.6244 15.9959 20.7564 16.3655 20.6923 16.7725C20.6264 17.1901 20.411 17.5703 20.0869 17.8418C19.7708 18.1063 19.3854 18.1834 19.0537 18.2168C18.7176 18.2506 18.2899 18.25 17.7968 18.25H5.66206C5.16899 18.25 4.74131 18.2506 4.40523 18.2168C4.07344 18.1834 3.68812 18.1063 3.37202 17.8418C3.04781 17.5703 2.83247 17.1902 2.76656 16.7725C2.70244 16.3654 2.83445 15.996 2.97652 15.6943C3.12048 15.3887 3.34089 15.0226 3.59468 14.5996L4.17281 13.6367C4.18794 13.6115 4.19464 13.5998 4.20113 13.5889C4.72525 12.7081 5.0569 11.7262 5.17378 10.708C5.17523 10.6954 5.17638 10.6817 5.17964 10.6523L5.43159 8.38672C5.78816 5.17781 8.50079 2.75 11.7294 2.75ZM16.1806 4.57715C17.1091 5.49324 17.7574 6.69752 17.9804 8.05762C17.6377 8.33329 17.2035 8.49993 16.7294 8.5C16.6613 8.5 16.5937 8.49591 16.5273 8.48926C16.3805 7.30741 15.815 6.26838 14.9892 5.51465C15.2453 5.06346 15.6713 4.72216 16.1806 4.57715Z" fill="currentColor"/>
<path d="M8.83074 17.9059C9.00166 18.6501 9.3783 19.3077 9.90223 19.7767C10.4262 20.2458 11.0681 20.5 11.7285 20.5C12.3889 20.5 13.0309 20.2458 13.5548 19.7767C14.0787 19.3077 14.4554 18.6501 14.6263 17.9059" stroke="currentColor" stroke-width="1.5" stroke-linecap="round"/>
<circle cx="16.7285" cy="6.5" r="2" fill="currentColor"/>
</svg>
