<svg width="15" height="19" viewBox="0 0 15 19" fill="none" xmlns="http://www.w3.org/2000/svg">
<path d="M8.75 0.75H4.75C2.54086 0.75 0.75 2.54086 0.75 4.75V12.75" stroke="currentColor" stroke-width="1.5" stroke-linecap="round"/>
<path d="M9.25 4.5C10.44 4.5 11.2697 4.50163 11.9053 4.57324C12.5258 4.64319 12.8685 4.77175 13.1201 4.96484C13.276 5.08446 13.4155 5.22403 13.5352 5.37988C13.7282 5.63152 13.8568 5.97423 13.9268 6.59473C13.9984 7.23029 14 8.06003 14 9.25V13.25C14 14.44 13.9984 15.2697 13.9268 15.9053C13.8568 16.5258 13.7282 16.8685 13.5352 17.1201C13.4155 17.276 13.276 17.4155 13.1201 17.5352C12.8685 17.7282 12.5258 17.8568 11.9053 17.9268C11.2697 17.9984 10.44 18 9.25 18C8.06003 18 7.23029 17.9984 6.59473 17.9268C5.97423 17.8568 5.63152 17.7282 5.37988 17.5352C5.22403 17.4155 5.08446 17.276 4.96484 17.1201C4.77175 16.8685 4.64319 16.5258 4.57324 15.9053C4.50163 15.2697 4.5 14.44 4.5 13.25V9.25C4.5 8.06003 4.50163 7.23029 4.57324 6.59473C4.64319 5.97423 4.77175 5.63152 4.96484 5.37988C5.08446 5.22403 5.22403 5.08446 5.37988 4.96484C5.63152 4.77175 5.97423 4.64319 6.59473 4.57324C7.23029 4.50163 8.06003 4.5 9.25 4.5Z" stroke="currentColor" stroke-width="1.5"/>
</svg>
