<svg width="15" height="15" viewBox="0 0 15 15" fill="none" xmlns="http://www.w3.org/2000/svg">
<path d="M11 3.5C11 5.433 9.65685 7 8 7C6.34315 7 5 5.433 5 3.5C5 1.567 6.34315 0 8 0C9.65685 0 11 1.567 11 3.5Z" fill="currentColor"/>
<path d="M13.8292 14.2095C14.4422 14.1329 14.8407 13.5236 14.6125 12.9496C14.0894 11.6342 13.2712 10.169 12.2268 9.44653C10.8707 8.50846 9.20925 8 7.5 8C5.79075 8 4.12927 8.50846 2.77323 9.44652C1.72884 10.169 0.910583 11.6342 0.387537 12.9496C0.159275 13.5236 0.55779 14.1329 1.17076 14.2095L2.5426 14.3808C5.83474 14.792 9.16526 14.792 12.4574 14.3808L13.8292 14.2095Z" fill="currentColor"/>
</svg>
