<svg width="24" height="24" viewBox="0 0 24 24" fill="none" xmlns="http://www.w3.org/2000/svg">
<path d="M17.1214 5.14458L17.1208 5.14397L14.2467 8.01803L5.52816 7.21088L4.22118 8.51781L10.4996 10.9522C10.7812 11.0615 10.865 11.4198 10.6608 11.6425L8.09494 14.4417C7.98605 14.5605 7.83203 14.6278 7.67089 14.6269L5.68966 14.6167L4.54009 15.7663C4.54009 15.7663 6.37513 16.2073 7.0843 16.9166C7.79347 17.6258 8.23454 19.4608 8.23454 19.4608L9.38412 18.3112L9.37393 16.33C9.37308 16.1689 9.44035 16.0148 9.55914 15.9059L12.3583 13.34C12.581 13.1359 12.9393 13.2196 13.0486 13.5013L15.4831 19.7797L16.7901 18.4727L15.9829 9.75409L18.8569 6.88003L18.8563 6.87943C19.2866 6.44915 20.0747 4.74851 19.6635 4.33736C19.2524 3.92621 17.5517 4.7143 17.1214 5.14458Z" fill="currentColor"/>
</svg>
