<svg width="20" height="20" viewBox="0 0 20 20" fill="none" xmlns="http://www.w3.org/2000/svg">
<path d="M18.75 9.75C18.75 7.86951 18.161 6.03625 17.0656 4.5077C15.9703 2.97915 14.4236 1.83209 12.643 1.22763C10.8623 0.623165 8.93696 0.591659 7.13744 1.13754C5.33792 1.68341 3.75459 2.77925 2.60982 4.27115C1.46505 5.76304 0.816347 7.57604 0.754819 9.45553C0.693291 11.335 1.22203 13.1866 2.26677 14.7501C3.31152 16.3137 4.81979 17.5108 6.57975 18.1732C8.33971 18.8356 10.263 18.93 12.0794 18.4433" stroke="currentColor" stroke-width="1.5" stroke-linecap="round"/>
<circle cx="9.75" cy="9.75" r="4" stroke="currentColor" stroke-width="1.5"/>
<path d="M13.75 6.75V11.25C13.75 12.6307 14.8693 13.75 16.25 13.75C17.6307 13.75 18.75 12.6307 18.75 11.25V9.75" stroke="currentColor" stroke-width="1.5" stroke-linecap="round"/>
</svg>
