<svg width="24" height="24" viewBox="0 0 24 24" fill="none" xmlns="http://www.w3.org/2000/svg">
<path d="M10 16L10 11" stroke="currentColor" stroke-width="1.5" stroke-linecap="round"/>
<path d="M14 16L14 11" stroke="currentColor" stroke-width="1.5" stroke-linecap="round"/>
<path d="M4 6.5H20C19.5353 6.5 19.303 6.5 19.1098 6.53843C18.3164 6.69624 17.6962 7.31644 17.5384 8.10982C17.5 8.30302 17.5 8.53534 17.5 9V15.5C17.5 17.3856 17.5 18.3284 16.9142 18.9142C16.3284 19.5 15.3856 19.5 13.5 19.5H10.5C8.61438 19.5 7.67157 19.5 7.08579 18.9142C6.5 18.3284 6.5 17.3856 6.5 15.5V9C6.5 8.53534 6.5 8.30302 6.46157 8.10982C6.30376 7.31644 5.68356 6.69624 4.89018 6.53843C4.69698 6.5 4.46466 6.5 4 6.5Z" stroke="currentColor" stroke-width="1.5" stroke-linecap="round"/>
<path d="M9.5 3.50024C9.5 3.50024 10 2.5 12 2.5C14 2.5 14.5 3.5 14.5 3.5" stroke="currentColor" stroke-width="1.5" stroke-linecap="round"/>
</svg>
