<svg width="24" height="24" viewBox="0 0 24 24" fill="none" xmlns="http://www.w3.org/2000/svg">
<path d="M9.83791 4.22793L3.33915 15.307C2.37683 16.9442 3.5766 19 5.50124 19H18.4988C20.4234 19 21.6232 16.9442 20.6609 15.307L14.1621 4.22793C13.1998 2.59069 10.8002 2.59069 9.83791 4.22793Z" stroke="currentColor" stroke-width="1.33265" stroke-miterlimit="10"/>
<path d="M12.944 7.28194V10.432C12.944 10.8 12.922 11.166 12.878 11.53C12.834 11.89 12.776 12.258 12.704 12.634H11.444C11.372 12.258 11.314 11.89 11.27 11.53C11.226 11.166 11.204 10.8 11.204 10.432V7.28194H12.944ZM11 14.8C11 14.656 11.026 14.522 11.078 14.398C11.134 14.274 11.208 14.166 11.3 14.074C11.396 13.982 11.508 13.91 11.636 13.858C11.764 13.802 11.904 13.774 12.056 13.774C12.204 13.774 12.342 13.802 12.47 13.858C12.598 13.91 12.71 13.982 12.806 14.074C12.902 14.166 12.976 14.274 13.028 14.398C13.084 14.522 13.112 14.656 13.112 14.8C13.112 14.944 13.084 15.08 13.028 15.208C12.976 15.332 12.902 15.44 12.806 15.532C12.71 15.624 12.598 15.696 12.47 15.748C12.342 15.8 12.204 15.826 12.056 15.826C11.904 15.826 11.764 15.8 11.636 15.748C11.508 15.696 11.396 15.624 11.3 15.532C11.208 15.44 11.134 15.332 11.078 15.208C11.026 15.08 11 14.944 11 14.8Z" fill="currentColor"/>
</svg>
