<svg width="24" height="24" viewBox="0 0 24 24" fill="none" xmlns="http://www.w3.org/2000/svg">
<path d="M12 4C7.58891 4 4.00005 7.58887 4.00005 12C4.00005 13.3774 4.35588 14.7318 5.03066 15.927L4.01292 19.5583C3.97953 19.6776 4.01188 19.8056 4.09814 19.8943C4.16457 19.9628 4.25501 20 4.34788 20C4.3757 20 4.40388 19.9965 4.43135 19.9899L8.22126 19.0511C9.37847 19.6723 10.6818 20 12 20C16.4111 20 20 16.4111 20 12C20 7.58887 16.4111 4 12 4Z" stroke="currentColor" stroke-width="1.5" stroke-miterlimit="10"/>
<path d="M15.8566 14.9514C15.6926 15.4467 14.9059 15.8987 14.5279 15.9595C14.1886 16.0137 13.7593 16.0369 13.2879 15.8755C13.0023 15.7773 12.6356 15.6471 12.166 15.4286C10.1916 14.51 8.90232 12.3685 8.80366 12.227C8.70533 12.0856 8 11.0775 8 10.0342C8 8.99093 8.50833 8.47783 8.68899 8.26546C8.86966 8.05309 9.08265 8 9.21399 8C9.34532 8 9.47632 8.00182 9.59131 8.00764C9.71231 8.01418 9.87464 7.95782 10.0343 8.37165C10.1983 8.79638 10.592 9.83968 10.6406 9.94623C10.69 10.0524 10.7226 10.1764 10.6573 10.3179C10.592 10.4593 10.5593 10.5477 10.4606 10.6717C10.362 10.7957 10.254 10.9481 10.1653 11.0433C10.0666 11.1492 9.96431 11.2637 10.079 11.4761C10.1936 11.6885 10.5886 12.3827 11.174 12.9449C11.9256 13.6671 12.5599 13.8911 12.7566 13.9972C12.9533 14.1034 13.0683 14.0856 13.1829 13.9442C13.2976 13.8023 13.6749 13.3249 13.8059 13.1129C13.9369 12.9009 14.0683 12.9358 14.2489 13.0067C14.4296 13.0772 15.3972 13.59 15.5939 13.6961C15.7906 13.8023 15.9219 13.8554 15.9712 13.9438C16.0206 14.0318 16.0206 14.4565 15.8566 14.9514Z" fill="currentColor"/>
</svg>
