<svg preserveAspectRatio="none" width="100%" height="100%" overflow="visible" style="display: block;" viewBox="0 0 50 20" fill="none" xmlns="http://www.w3.org/2000/svg">
<g id="&#239;&#163;&#191;Pay">
<path id="Vector" d="M41.0267 20.0009C43.5357 20.0009 44.7339 19.0792 45.6862 16.2938L49.7313 4.73207H47.0482L44.4369 13.4776H44.2628L41.6412 4.73207H38.8557L42.8598 15.9866L42.7267 16.4781C42.399 17.5124 41.7948 17.922 40.7195 17.922C40.5454 17.922 40.1665 17.9118 40.0232 17.8811V19.9599C40.187 19.9906 40.8731 20.0009 41.0267 20.0009Z" fill="var(--fill-0, white)"/>
<path id="Vector_2" d="M33.0074 14.1219C31.8809 14.1219 31.0719 13.5586 31.0719 12.6165C31.0719 11.7051 31.7376 11.193 33.161 11.1009L35.6905 10.937V11.828C35.6905 13.1285 34.5435 14.1219 33.0074 14.1219ZM32.2598 16.1188C33.7243 16.1188 34.9531 15.4839 35.5778 14.3984H35.7519V15.9345H38.1994V8.28469C38.1994 5.90886 36.5814 4.50589 33.7038 4.50589C31.0412 4.50589 29.1876 5.76549 28.9828 7.74194H31.3791C31.6147 6.98413 32.4135 6.5745 33.5809 6.5745C34.9531 6.5745 35.6905 7.18894 35.6905 8.28469V9.22683L32.8026 9.40092C30.0786 9.56477 28.5527 10.7322 28.5527 12.7599C28.5527 14.808 30.0991 16.1188 32.2598 16.1188Z" fill="var(--fill-0, white)"/>
<path id="Vector_3" d="M17.1224 1.15764V15.9349H19.7645V11.0911H22.9698C25.9601 11.0911 28.0492 9.08391 28.0492 6.15508C28.0492 3.17505 26.0317 1.15764 23.0824 1.15764H17.1224ZM19.7645 3.36962H22.3861C24.2908 3.36962 25.3661 4.34248 25.3661 6.15508C25.3661 7.91647 24.2601 8.89957 22.3758 8.89957H19.7645V3.36962Z" fill="var(--fill-0, white)"/>
<path id="Vector_4" d="M9.49309 3.89145C8.27445 3.89145 7.29135 4.62878 6.65643 4.62878C5.99078 4.62878 5.09985 3.93241 4.04506 3.93241C2.03789 3.93241 0 5.60164 0 8.72504C0 10.681 0.757808 12.7394 1.68971 14.0809C2.47824 15.1971 3.18484 16.1188 4.18843 16.1188C5.18177 16.1188 5.62212 15.4634 6.86124 15.4634C8.1106 15.4634 8.39734 16.0983 9.49309 16.0983C10.5888 16.0983 11.3159 15.105 12.002 14.1219C12.7599 12.9852 13.0876 11.8792 13.0978 11.828C13.0364 11.8075 10.9473 10.9575 10.9473 8.56119C10.9473 6.49258 12.5858 5.57092 12.6779 5.49923C11.6027 3.93241 9.95392 3.89145 9.49309 3.89145ZM8.92985 2.5704C9.4214 1.96621 9.76959 1.14695 9.76959 0.31746C9.76959 0.204813 9.75934 0.0921659 9.73886 0C8.94009 0.030722 7.95699 0.532514 7.37327 1.21864C6.92268 1.74091 6.49258 2.5704 6.49258 3.3999C6.49258 3.52279 6.51306 3.65591 6.5233 3.69688C6.5745 3.70712 6.65643 3.71736 6.73835 3.71736C7.46544 3.71736 8.3871 3.22581 8.92985 2.5704Z" fill="var(--fill-0, white)"/>
</g>
</svg>
