<svg width="52" height="21" viewBox="0 0 52 21" fill="none" xmlns="http://www.w3.org/2000/svg">
<path d="M24.6806 10.1766V16.1572H22.8433V1.82812H27.8182C29.0669 1.82812 30.1279 2.24291 31.0013 3.07246C31.8932 3.90202 32.3392 4.9193 32.3392 6.12421C32.3392 7.35962 31.8932 8.38705 31.0013 9.20641C30.1464 10.0259 29.0854 10.4306 27.8182 10.4306L24.6806 10.1766ZM24.6806 3.57875V8.42571H27.8636C28.5862 8.42571 29.1766 8.18693 29.6348 7.70941C30.1113 7.23186 30.3495 6.63558 30.3495 5.92058C30.3495 5.2157 30.1113 4.62959 29.6348 4.16222C29.1766 3.67456 28.5862 3.43076 27.8636 3.43076L24.6806 3.57875Z" fill="white"/>
<path d="M37.6498 5.72559C38.9914 5.72559 40.0544 6.10986 40.8389 6.87836C41.6234 7.64687 42.0156 8.69463 42.0156 10.0215V16.1572H40.2683V14.7793H40.1783C39.4247 15.8882 38.4278 16.4427 37.1877 16.4427C36.1268 16.4427 35.2349 16.1268 34.512 15.4949C33.7891 14.8631 33.4277 14.0739 33.4277 13.1271C33.4277 12.1297 33.8088 11.3302 34.5711 10.7286C35.3333 10.1266 36.3333 9.82578 37.5712 9.82578C38.6319 9.82578 39.5039 10.0239 40.1874 10.4202V9.93754C40.1874 9.33108 39.9404 8.8129 39.4465 8.38292C38.9526 7.95295 38.3714 7.73797 37.7029 7.73797C36.6901 7.73797 35.8935 8.15783 35.3129 8.99757L33.7158 8.00068C34.5722 6.81725 35.8935 6.22559 37.6498 6.22559V5.72559ZM35.3742 13.1576C35.3742 13.5978 35.5673 13.9717 35.9537 14.2797C36.3401 14.5876 36.7909 14.7416 37.3063 14.7416C38.0598 14.7416 38.7315 14.4622 39.3214 13.9033C39.9113 13.3445 40.2063 12.6905 40.2063 11.9413C39.6374 11.5031 38.8585 11.284 37.8698 11.284C37.1394 11.284 36.523 11.4686 36.0206 11.8378C35.5182 12.207 35.2668 12.6498 35.2668 13.1664L35.3742 13.1576Z" fill="white"/>
<path d="M51.9999 6.01123L46.0728 19.7717H44.1719L46.2848 15.3315L42.4043 6.01123H44.4163L47.2499 13.0356H47.2902L50.0329 6.01123H51.9999Z" fill="white"/>
<path d="M17.3061 8.88068C17.3061 8.30954 17.2565 7.76089 17.1617 7.23486H8.8335V10.3495H13.5755C13.3673 11.4212 12.7587 12.3328 11.8445 12.9265V15.1046H14.6879C16.3449 13.5921 17.3061 11.4437 17.3061 8.88068Z" fill="#4285F4"/>
<path d="M8.83323 17.2106C11.1063 17.2106 13.0182 16.4347 14.6877 15.1048L11.8443 12.9265C11.0584 13.4525 10.0385 13.7719 8.83323 13.7719C6.63791 13.7719 4.77403 12.2431 4.08339 10.2031H1.15234V12.4492C2.81316 15.7434 6.08879 17.2106 8.83323 17.2106Z" fill="#34A853"/>
<path d="M4.08366 10.2033C3.89906 9.67723 3.79492 9.11486 3.79492 8.53504C3.79492 7.95523 3.89906 7.39286 4.08366 6.86675V4.62073H1.15261C0.559339 5.79562 0.222656 7.11838 0.222656 8.53504C0.222656 9.95171 0.559339 11.2745 1.15261 12.4494L4.08366 10.2033Z" fill="#FBBC04"/>
<path d="M8.83323 3.29786C10.1531 3.29786 11.3332 3.75073 12.2612 4.64026L14.7522 2.14928C13.0136 0.521246 11.1017 -0.140625 8.83323 -0.140625C6.08879 -0.140625 2.81316 1.32661 1.15234 4.62069L4.08339 6.86671C4.77403 4.82678 6.63791 3.29786 8.83323 3.29786Z" fill="#EA4335"/>
</svg>
