<svg preserveAspectRatio="none" width="100%" height="100%" overflow="visible" style="display: block;" viewBox="0 0 57 16" fill="none" xmlns="http://www.w3.org/2000/svg">
<g id="Layer_1">
<path id="Vector" fill-rule="evenodd" clip-rule="evenodd" d="M7.8131 0.74118C9.60688 0.74118 11.2614 1.70029 11.0349 4.09198C10.7664 6.92725 9.21696 8.50619 6.78015 8.51274H4.6543C4.34784 8.51274 4.20051 8.75834 4.12009 9.26421L3.70983 11.8447C3.64795 12.2343 3.44551 12.4267 3.14539 12.4267H1.16568C0.84991 12.4267 0.739766 12.2277 0.810123 11.7827L2.44667 1.43901C2.52714 0.930384 2.72443 0.74118 3.07414 0.74118H7.8131ZM4.58827 6.27808L6.20093 6.27835C7.209 6.24084 7.87941 5.55232 7.94676 4.3098C7.98839 3.54246 7.46308 2.99367 6.62659 2.9974L5.10848 3.00417L4.58827 6.27808ZM16.4164 11.6337C16.5972 11.4719 16.7818 11.3871 16.755 11.5873L16.6908 12.0666C16.6572 12.3164 16.7581 12.45 16.9945 12.45H18.7532C19.0491 12.45 19.1937 12.3318 19.2666 11.8802L20.3505 5.17122C20.4049 4.83415 20.3222 4.66876 20.0626 4.66876H18.129C17.9545 4.66876 17.87 4.76543 17.8244 5.02801L17.7527 5.44097C17.7153 5.65654 17.6153 5.69381 17.5224 5.47699C17.1939 4.71057 16.3572 4.36711 15.1836 4.39088C12.4706 4.44588 10.6417 6.47696 10.4461 9.08044C10.2948 11.0944 11.7584 12.6758 13.6866 12.6758C15.0858 12.6758 15.7117 12.2643 16.4164 11.6337ZM14.9447 10.6031C13.777 10.6031 12.9631 9.68459 13.1329 8.55839C13.3028 7.43227 14.3938 6.51377 15.5615 6.51377C16.7293 6.51377 17.5432 7.43227 17.3733 8.55839C17.2034 9.68459 16.1125 10.6031 14.9447 10.6031ZM23.7947 4.64729H22.0179C21.6496 4.64729 21.5 4.91301 21.617 5.251L23.8312 11.6463L21.6494 14.688C21.4673 14.9418 21.6077 15.174 21.8646 15.174H23.8695C24.1687 15.174 24.3147 15.0987 24.4653 14.8856L31.2754 5.251C31.4853 4.95417 31.3863 4.64365 31.0424 4.64334L29.147 4.64138C28.8216 4.64104 28.691 4.76799 28.5043 5.0351L25.6637 9.09947L24.3999 5.02801C24.3221 4.77704 24.1363 4.64729 23.7947 4.64729Z" fill="var(--fill-0, white)"/>
<path id="Vector_2" fill-rule="evenodd" clip-rule="evenodd" d="M38.363 0.74118C40.1568 0.74118 41.8113 1.70029 41.5848 4.09198C41.3163 6.92725 39.7669 8.50619 37.3301 8.51274H35.2042C34.8978 8.51274 34.7505 8.75834 34.6701 9.26421L34.2598 11.8447C34.1979 12.2343 33.9955 12.4267 33.6953 12.4267H31.7156C31.3998 12.4267 31.2897 12.2277 31.3601 11.7827L32.9966 1.43901C33.0771 0.930384 33.2744 0.74118 33.6241 0.74118H38.363ZM35.1382 6.27808L36.7509 6.27835C37.759 6.24084 38.4294 5.55232 38.4967 4.3098C38.5383 3.54246 38.013 2.99367 37.1765 2.9974L35.6584 3.00417L35.1382 6.27808ZM46.9664 11.6337C47.1472 11.4719 47.3318 11.3871 47.305 11.5873L47.2407 12.0666C47.2072 12.3164 47.3081 12.45 47.5445 12.45H49.3032C49.599 12.45 49.7437 12.3318 49.8166 11.8802L50.9004 5.17122C50.9548 4.83415 50.8722 4.66876 50.6125 4.66876H48.6789C48.5044 4.66876 48.42 4.76543 48.3744 5.02801L48.3026 5.44097C48.2652 5.65654 48.1652 5.69381 48.0723 5.47699C47.7439 4.71057 46.9072 4.36711 45.7336 4.39088C43.0206 4.44588 41.1916 6.47696 40.9961 9.08044C40.8448 11.0944 42.3083 12.6758 44.2366 12.6758C45.6358 12.6758 46.2617 12.2643 46.9664 11.6337ZM45.4947 10.6031C44.327 10.6031 43.513 9.68459 43.6829 8.55839C43.8528 7.43227 44.9437 6.51377 46.1115 6.51377C47.2792 6.51377 48.0931 7.43227 47.9233 8.55839C47.7534 9.68459 46.6625 10.6031 45.4947 10.6031ZM53.6073 12.4621H51.5773C51.4161 12.4621 51.3041 12.3375 51.3285 12.1851L53.1137 1.04169C53.1381 0.889344 53.29 0.764724 53.4513 0.764724H55.4812C55.6425 0.764724 55.7545 0.889344 55.7301 1.04169L53.9449 12.1851C53.9205 12.3375 53.7686 12.4621 53.6073 12.4621Z" fill="var(--fill-0, white)"/>
</g>
</svg>
