<svg preserveAspectRatio="none" width="100%" height="100%" overflow="visible" style="display: block;" viewBox="0 0 35 14" fill="none" xmlns="http://www.w3.org/2000/svg">
<g id="Group">
<path id="Vector" fill-rule="evenodd" clip-rule="evenodd" d="M34.9981 7.23171C34.9981 4.83983 33.7926 2.95248 31.4885 2.95248C29.1748 2.95248 27.7748 4.83983 27.7748 7.21303C27.7748 10.0254 29.4275 11.4455 31.7996 11.4455C32.9565 11.4455 33.8315 11.1933 34.4925 10.8382V8.96957C33.8315 9.28724 33.0732 9.48345 32.1107 9.48345C31.1677 9.48345 30.3316 9.16578 30.2247 8.06327H34.9786C34.9786 7.9418 34.9981 7.45595 34.9981 7.23171ZM30.1955 6.3441C30.1955 5.28831 30.8663 4.84917 31.4788 4.84917C32.0718 4.84917 32.7037 5.28831 32.7037 6.3441H30.1955Z" fill="var(--fill-0, #635BFF)"/>
<path id="Vector_2" fill-rule="evenodd" clip-rule="evenodd" d="M24.0223 2.95248C23.0696 2.95248 22.4571 3.38227 22.1168 3.68126L21.9904 3.10197H19.8517V13.9963L22.2821 13.5011L22.2918 10.8569C22.6418 11.0998 23.157 11.4455 24.0126 11.4455C25.7527 11.4455 27.3374 10.1001 27.3374 7.13828C27.3276 4.42872 25.7236 2.95248 24.0223 2.95248ZM23.439 9.39002C22.8654 9.39002 22.5251 9.19381 22.2918 8.95088L22.2821 5.48452C22.5349 5.21356 22.8848 5.0267 23.439 5.0267C24.3236 5.0267 24.9361 5.97971 24.9361 7.20368C24.9361 8.45569 24.3334 9.39002 23.439 9.39002Z" fill="var(--fill-0, #635BFF)"/>
<path id="Vector_3" fill-rule="evenodd" clip-rule="evenodd" d="M16.5074 2.40123L18.9476 1.89669V0L16.5074 0.495195V2.40123Z" fill="var(--fill-0, #635BFF)"/>
<path id="Vector_4" d="M18.9476 3.11132H16.5074V11.2867H18.9476V3.11132Z" fill="var(--fill-0, #635BFF)"/>
<path id="Vector_5" fill-rule="evenodd" clip-rule="evenodd" d="M13.8923 3.80272L13.7367 3.11132H11.6369V11.2867H14.0673V5.74613C14.6409 5.02669 15.613 5.1575 15.9144 5.26028V3.11132C15.6033 2.9992 14.4659 2.79365 13.8923 3.80272Z" fill="var(--fill-0, #635BFF)"/>
<path id="Vector_6" fill-rule="evenodd" clip-rule="evenodd" d="M9.03144 1.08382L6.65935 1.56967L6.64963 9.05366C6.64963 10.4365 7.72874 11.4549 9.16755 11.4549C9.96472 11.4549 10.548 11.3147 10.8688 11.1466V9.24987C10.5577 9.37133 9.02172 9.80112 9.02172 8.41831V5.10144H10.8688V3.11132H9.02172L9.03144 1.08382Z" fill="var(--fill-0, #635BFF)"/>
<path id="Vector_7" fill-rule="evenodd" clip-rule="evenodd" d="M2.45959 5.48452C2.45959 5.12013 2.77068 4.97998 3.28593 4.97998C4.02478 4.97998 4.95806 5.19487 5.69691 5.57795V3.38227C4.89001 3.07394 4.09283 2.95248 3.28593 2.95248C1.31243 2.95248 0 3.94287 0 5.59664C0 8.17539 3.69424 7.76428 3.69424 8.87613C3.69424 9.30593 3.30537 9.44608 2.76096 9.44608C1.95406 9.44608 0.92356 9.1284 0.106938 8.69861V10.9223C1.01105 11.296 1.92489 11.4549 2.76096 11.4549C4.78307 11.4549 6.17327 10.4925 6.17327 8.82007C6.16355 6.03577 2.45959 6.53097 2.45959 5.48452Z" fill="var(--fill-0, #635BFF)"/>
</g>
</svg>
