<svg width="132" height="64" viewBox="0 0 132 64" fill="none" xmlns="http://www.w3.org/2000/svg">
<path d="M63.7241 32.1035V36.6897H54.6207V41.2759H40.9655V36.6897H50.069V32.1035H54.6207V27.5172H59.1724V32.1035H63.7241ZM13.6552 50.4483H18.2069V45.8621H13.6552V41.2759H9.1034V45.8621H4.5517V50.4483H0V64H4.5517V55.0345H9.1034V50.4483H13.6552ZM18.2069 22.931H22.7586V9.1724H9.1034V22.931H18.2069ZM63.7241 32.1035H68.2759V13.7586H59.1724V9.1724H54.6207V18.3448H63.7241V22.931H59.1724V27.5172H63.7241V32.1035ZM36.4138 45.8621V50.4483H45.5172V45.8621H40.9655V41.2759H36.4138V45.8621ZM31.8621 55.0345H18.2069V59.6207H22.7586V64H27.3103V59.6207H31.8621V64H36.4138V59.6207H40.9655V55.0345H36.4138V50.4483H31.8621V55.0345ZM13.6552 55.0345H9.1034V64H18.2069V59.6207H13.6552V55.0345ZM22.7586 50.4483H31.8621V45.8621H27.3103V41.2759H22.7586V36.6897H18.2069V45.8621H22.7586V50.4483ZM91.034 22.931H86.483V27.5172H91.034V22.931ZM45.5172 27.5172V32.1035H50.069V27.5172H45.5172ZM86.483 64V59.6207H81.931V64H86.483ZM4.5517 36.6897V41.2759H9.1034V36.6897H4.5517ZM31.8621 36.6897H27.3103V41.2759H31.8621V36.6897ZM68.2759 9.1724V13.7586H77.3794V0H72.8276V4.5862H68.2759V0H63.7241V4.5862H59.1724V9.1724H68.2759ZM91.034 36.6897V41.2759H95.586V45.8621H100.138V36.6897H95.586V27.5172H91.034V32.1035H86.483V27.5172H81.931V36.6897H91.034ZM81.931 50.4483V45.8621H77.3793V59.6207H81.931V50.4483ZM77.3793 36.6897H63.7241V45.8621H68.2759V41.2759H81.9311L81.931 36.6897H77.3793ZM91.034 45.8621V41.2759H81.9311L81.931 45.8621H91.034ZM72.8276 32.1035H77.3794V27.5172H72.8276V32.1035ZM104.69 64H109.241V59.6207H104.69V64ZM122.897 36.6897H118.345V41.2759H113.793V36.6897H109.241V50.4483H113.793V45.8621H122.897V36.6897ZM104.69 50.4483H100.138V55.0345H104.69V50.4483ZM109.241 59.6207H113.793V55.0345H109.241V59.6207ZM95.586 64H100.138V59.6207H95.586V64ZM45.5172 64H50.069V59.6207H45.5172V64ZM113.793 9.1724H109.241V22.931H122.897V9.1724H113.793ZM132 0V32.1035H100.138V0H132ZM127.448 4.5862H104.69V27.5172H127.448V4.5862ZM95.586 50.4483H91.034V59.6207H95.586V50.4483ZM127.448 41.2759H132V36.6897H127.448V41.2759ZM127.448 55.0345H122.897V50.4483H118.345V64H132V59.6207H127.448V55.0345ZM127.448 45.8621H122.897V50.4483H127.448V45.8621ZM40.9655 27.5172H36.4138V32.1035H40.9655V27.5172ZM77.3793 18.3448H72.8275V22.931H77.3793V18.3448ZM4.5517 32.1035H0V0H31.8621V32.1035H4.5517ZM4.5517 27.5172H27.3103V4.5862H4.5517V27.5172ZM81.931 0V4.5862H86.483V0H81.931ZM54.6207 0H50.069V4.5862H54.6207V0ZM59.1724 64H63.7241V59.6207H59.1724V64ZM45.5172 22.931H50.069V13.7586H45.5172V9.1724H50.069V4.5862H45.5172V0H36.4138V4.5862H40.9655V9.1724H36.4138V13.7586H40.9655V18.3448H36.4138V22.931H45.5172ZM95.586 0H91.034V4.5862H95.586V0ZM68.2759 50.4483H54.6207V59.6207H59.1724V55.0345H63.7241V59.6207H68.2759V50.4483ZM68.2759 64H72.8276V59.6207H68.2759V64ZM50.069 45.8621V50.4483H54.6207V45.8621H50.069ZM91.034 18.3448V13.7586H95.586V9.1724H91.034V4.5862H86.483V9.1724H81.931V18.3448H91.034Z" fill="#DEE6ED"/>
</svg>
