<svg width="22" height="17" viewBox="0 0 22 17" fill="none" xmlns="http://www.w3.org/2000/svg">
<path d="M11.7567 0.277344H0.627L7.2262 6.32267C8.21145 7.22519 9.4991 7.72582 10.8352 7.72582H12.1361L7.80613 3.62416L9.71093 3.63917C10.2318 3.64326 10.7331 3.83789 11.1203 4.18627L14.3828 7.12151C14.8153 7.51055 15.3764 7.72582 15.958 7.72582H16.9327C17.9154 7.72582 18.9401 7.97546 18.9401 8.63855C18.9401 9.30165 17.9154 9.55129 16.9327 9.55129H15.958C15.3763 9.55129 14.8152 9.76655 14.3828 10.1556L11.1203 13.0908C10.7331 13.4392 10.2317 13.6338 9.71089 13.6379L7.80609 13.6529L12.136 9.55133H10.8352C9.49906 9.55133 8.21141 10.052 7.22616 10.9545L0.626953 16.9998H11.7566C12.478 16.9998 13.1732 16.7295 13.7052 16.2422L21.5548 9.05136C21.797 8.82949 21.797 8.44771 21.5548 8.2258L13.7052 1.03496C13.1733 0.547661 12.4781 0.277344 11.7567 0.277344Z" fill="#4EB40C"/>
<path d="M7.22606 6.32262C8.21144 7.22514 9.4991 7.72578 10.8351 7.72578H12.1361L7.80622 3.62416L9.71075 3.63917C10.136 3.64255 10.5442 3.77857 10.8919 4.01566L6.67452 0.277344H0.626953L7.22606 6.32262Z" fill="#6CD22D"/>
<path d="M11.1202 13.0902C10.7331 13.4386 10.2318 13.6332 9.71097 13.6374L7.80622 13.6524L12.1361 9.55078H10.8351C9.49914 9.55078 8.21144 10.0514 7.22606 10.9539L0.626953 16.9992H6.77762" fill="#6CD22D"/>
</svg>
